<?xml version="1.0" encoding="UTF-8" standalone="no"?>
<!DOCTYPE svg PUBLIC "-//W3C//DTD SVG 1.1//EN" "http://www.w3.org/Graphics/SVG/1.1/DTD/svg11.dtd">
<svg width="100%" height="100%" viewBox="0 0 1253 730" version="1.1" xmlns="http://www.w3.org/2000/svg" xmlns:xlink="http://www.w3.org/1999/xlink" xml:space="preserve" xmlns:serif="http://www.serif.com/" style="fill-rule:evenodd;clip-rule:evenodd;stroke-linecap:round;stroke-linejoin:round;">
    <g id="p-0">
    </g>
    <g id="p-1">
        <path d="M37.134,659.339L56.693,659.339C56.976,659.339 56.693,659.055 56.693,659.339L56.693,667.559C56.693,667.715 56.82,667.843 56.976,667.843L73.984,667.843C74.14,667.843 74.268,667.715 74.268,667.559L74.268,659.339C74.268,659.055 73.984,659.339 74.268,659.339L90.709,659.339C90.992,659.339 90.709,659.055 90.709,659.339L90.709,667.559C90.709,667.715 90.836,667.843 90.992,667.843L108,667.843C108.156,667.843 108.283,667.715 108.283,667.559L108.283,659.339C108.283,659.055 108,659.339 108.283,659.339L124.724,659.339C125.008,659.339 124.724,659.055 124.724,659.339L124.724,667.559C124.724,667.715 124.852,667.843 125.008,667.843L142.016,667.843C142.172,667.843 142.299,667.715 142.299,667.559L142.299,659.339C142.299,659.055 142.016,659.339 142.299,659.339L158.74,659.339C159.024,659.339 158.74,659.055 158.74,659.339L158.74,667.559C158.74,667.715 158.868,667.843 159.024,667.843L176.031,667.843C176.187,667.843 176.315,667.715 176.315,667.559L176.315,659.339C176.315,659.055 176.031,659.339 176.315,659.339L192.756,659.339C193.039,659.339 192.756,659.055 192.756,659.339L192.756,667.559C192.756,667.715 192.883,667.843 193.039,667.843L210.047,667.843C210.203,667.843 210.331,667.715 210.331,667.559L210.331,659.339C210.331,659.055 210.047,659.339 210.331,659.339L226.772,659.339C227.055,659.339 226.772,659.055 226.772,659.339L226.772,667.559C226.772,667.715 226.899,667.843 227.055,667.843L244.063,667.843C244.219,667.843 244.346,667.715 244.346,667.559L244.346,659.339C244.346,659.055 244.063,659.339 244.346,659.339L260.787,659.339C261.071,659.339 260.787,659.055 260.787,659.339L260.787,667.559C260.787,667.715 260.915,667.843 261.071,667.843L278.079,667.843C278.235,667.843 278.362,667.715 278.362,667.559L278.362,659.339C278.362,659.055 278.079,659.339 278.362,659.339L294.803,659.339C295.087,659.339 294.803,659.055 294.803,659.339L294.803,667.559C294.803,667.715 294.931,667.843 295.087,667.843L312.094,667.843C312.25,667.843 312.378,667.715 312.378,667.559L312.378,659.339C312.378,659.055 312.094,659.339 312.378,659.339L328.819,659.339C329.102,659.339 328.819,659.055 328.819,659.339L328.819,667.559C328.819,667.715 328.946,667.843 329.102,667.843L346.11,667.843C346.266,667.843 346.394,667.715 346.394,667.559L346.394,659.339C346.394,659.055 346.11,659.339 346.394,659.339L362.835,659.339C363.118,659.339 362.835,659.055 362.835,659.339L362.835,667.559C362.835,667.715 362.962,667.843 363.118,667.843L380.126,667.843C380.282,667.843 380.409,667.715 380.409,667.559L380.409,659.339C380.409,659.055 380.126,659.339 380.409,659.339L396.85,659.339C397.134,659.339 396.85,659.055 396.85,659.339L396.85,667.559C396.85,667.715 396.978,667.843 397.134,667.843L414.142,667.843C414.298,667.843 414.425,667.715 414.425,667.559L414.425,659.339C414.425,659.055 414.142,659.339 414.425,659.339L430.866,659.339C431.15,659.339 430.866,659.055 430.866,659.339L430.866,667.559C430.866,667.715 430.994,667.843 431.15,667.843L448.157,667.843C448.313,667.843 448.441,667.715 448.441,667.559L448.441,659.339C448.441,659.055 448.157,659.339 448.441,659.339L464.882,659.339C465.165,659.339 464.882,659.055 464.882,659.339L464.882,667.559C464.882,667.715 465.009,667.843 465.165,667.843L482.173,667.843C482.329,667.843 482.457,667.715 482.457,667.559L482.457,659.339C482.457,659.055 482.173,659.339 482.457,659.339L498.898,659.339C499.181,659.339 498.898,659.055 498.898,659.339L498.898,667.559C498.898,667.715 499.025,667.843 499.181,667.843L516.189,667.843C516.345,667.843 516.472,667.715 516.472,667.559L516.472,659.339C516.472,659.055 516.189,659.339 516.472,659.339L532.913,659.339C533.197,659.339 532.913,659.055 532.913,659.339L532.913,667.559C532.913,667.715 533.041,667.843 533.197,667.843L550.205,667.843C550.361,667.843 550.488,667.715 550.488,667.559L550.488,659.339C550.488,659.055 550.205,659.339 550.488,659.339L566.929,659.339C567.213,659.339 566.929,659.055 566.929,659.339L566.929,667.559C566.929,667.715 567.057,667.843 567.213,667.843L584.22,667.843C584.376,667.843 584.504,667.715 584.504,667.559L584.504,659.339C584.504,659.055 584.22,659.339 584.504,659.339L604.063,659.339C604.219,659.339 604.346,659.211 604.346,659.055L604.346,630.992C604.346,630.709 604.063,630.992 604.346,630.992L612.567,630.992C612.723,630.992 612.85,630.865 612.85,630.709L612.85,613.701C612.85,613.545 612.723,613.417 612.567,613.417L604.346,613.417C604.063,613.417 604.346,613.701 604.346,613.417L604.346,596.976C604.346,596.693 604.063,596.976 604.346,596.976L612.567,596.976C612.723,596.976 612.85,596.849 612.85,596.693L612.85,579.685C612.85,579.529 612.723,579.402 612.567,579.402L604.346,579.402C604.063,579.402 604.346,579.685 604.346,579.402L604.346,562.961C604.346,562.677 604.063,562.961 604.346,562.961L612.567,562.961C612.723,562.961 612.85,562.833 612.85,562.677L612.85,545.669C612.85,545.513 612.723,545.386 612.567,545.386L604.346,545.386C604.063,545.386 604.346,545.669 604.346,545.386L604.346,517.323C604.346,517.167 604.219,517.039 604.063,517.039L584.504,517.039C584.22,517.039 584.504,517.323 584.504,517.039L584.504,508.819C584.504,508.663 584.376,508.535 584.22,508.535L567.213,508.535C567.057,508.535 566.929,508.663 566.929,508.819L566.929,517.039C566.929,517.323 567.213,517.039 566.929,517.039L550.488,517.039C550.205,517.039 550.488,517.323 550.488,517.039L550.488,508.819C550.488,508.663 550.361,508.535 550.205,508.535L533.197,508.535C533.041,508.535 532.913,508.663 532.913,508.819L532.913,517.039C532.913,517.323 533.197,517.039 532.913,517.039L516.472,517.039C516.189,517.039 516.472,517.323 516.472,517.039L516.472,508.819C516.472,508.663 516.345,508.535 516.189,508.535L499.181,508.535C499.025,508.535 498.898,508.663 498.898,508.819L498.898,517.039C498.898,517.323 499.181,517.039 498.898,517.039L482.457,517.039C482.173,517.039 482.457,517.323 482.457,517.039L482.457,508.819C482.457,508.663 482.329,508.535 482.173,508.535L465.165,508.535C465.009,508.535 464.882,508.663 464.882,508.819L464.882,517.039C464.882,517.323 465.165,517.039 464.882,517.039L448.441,517.039C448.157,517.039 448.441,517.323 448.441,517.039L448.441,508.819C448.441,508.663 448.313,508.535 448.157,508.535L431.15,508.535C430.994,508.535 430.866,508.663 430.866,508.819L430.866,517.039C430.866,517.323 431.15,517.039 430.866,517.039L414.425,517.039C414.142,517.039 414.425,517.323 414.425,517.039L414.425,508.819C414.425,508.663 414.298,508.535 414.142,508.535L397.134,508.535C396.978,508.535 396.85,508.663 396.85,508.819L396.85,517.039C396.85,517.323 397.134,517.039 396.85,517.039L380.409,517.039C380.126,517.039 380.409,517.323 380.409,517.039L380.409,508.819C380.409,508.663 380.282,508.535 380.126,508.535L363.118,508.535C362.962,508.535 362.835,508.663 362.835,508.819L362.835,517.039C362.835,517.323 363.118,517.039 362.835,517.039L346.394,517.039C346.11,517.039 346.394,517.323 346.394,517.039L346.394,508.819C346.394,508.663 346.266,508.535 346.11,508.535L329.102,508.535C328.946,508.535 328.819,508.663 328.819,508.819L328.819,517.039C328.819,517.323 329.102,517.039 328.819,517.039L312.378,517.039C312.094,517.039 312.378,517.323 312.378,517.039L312.378,508.819C312.378,508.663 312.25,508.535 312.094,508.535L295.087,508.535C294.931,508.535 294.803,508.663 294.803,508.819L294.803,517.039C294.803,517.323 295.087,517.039 294.803,517.039L278.362,517.039C278.079,517.039 278.362,517.323 278.362,517.039L278.362,508.819C278.362,508.663 278.235,508.535 278.079,508.535L261.071,508.535C260.915,508.535 260.787,508.663 260.787,508.819L260.787,517.039C260.787,517.323 261.071,517.039 260.787,517.039L244.346,517.039C244.063,517.039 244.346,517.323 244.346,517.039L244.346,508.819C244.346,508.663 244.219,508.535 244.063,508.535L227.055,508.535C226.899,508.535 226.772,508.663 226.772,508.819L226.772,517.039C226.772,517.323 227.055,517.039 226.772,517.039L210.331,517.039C210.047,517.039 210.331,517.323 210.331,517.039L210.331,508.819C210.331,508.663 210.203,508.535 210.047,508.535L193.039,508.535C192.883,508.535 192.756,508.663 192.756,508.819L192.756,517.039C192.756,517.323 193.039,517.039 192.756,517.039L176.315,517.039C176.031,517.039 176.315,517.323 176.315,517.039L176.315,508.819C176.315,508.663 176.187,508.535 176.031,508.535L159.024,508.535C158.868,508.535 158.74,508.663 158.74,508.819L158.74,517.039C158.74,517.323 159.024,517.039 158.74,517.039L142.299,517.039C142.016,517.039 142.299,517.323 142.299,517.039L142.299,508.819C142.299,508.663 142.172,508.535 142.016,508.535L125.008,508.535C124.852,508.535 124.724,508.663 124.724,508.819L124.724,517.039C124.724,517.323 125.008,517.039 124.724,517.039L108.283,517.039C108,517.039 108.283,517.323 108.283,517.039L108.283,508.819C108.283,508.663 108.156,508.535 108,508.535L90.992,508.535C90.836,508.535 90.709,508.663 90.709,508.819L90.709,517.039C90.709,517.323 90.992,517.039 90.709,517.039L74.268,517.039C73.984,517.039 74.268,517.323 74.268,517.039L74.268,508.819C74.268,508.663 74.14,508.535 73.984,508.535L56.976,508.535C56.82,508.535 56.693,508.663 56.693,508.819L56.693,517.039C56.693,517.323 56.976,517.039 56.693,517.039L37.134,517.039C36.978,517.039 36.85,517.167 36.85,517.323L36.85,545.386C36.85,545.669 37.134,545.386 36.85,545.386L28.63,545.386C28.474,545.386 28.346,545.513 28.346,545.669L28.346,562.677C28.346,562.833 28.474,562.961 28.63,562.961L36.85,562.961C37.134,562.961 36.85,562.677 36.85,562.961L36.85,579.402C36.85,579.685 37.134,579.402 36.85,579.402L28.63,579.402C28.474,579.402 28.346,579.529 28.346,579.685L28.346,596.693C28.346,596.849 28.474,596.976 28.63,596.976L36.85,596.976C37.134,596.976 36.85,596.693 36.85,596.976L36.85,613.417C36.85,613.701 37.134,613.417 36.85,613.417L28.63,613.417C28.474,613.417 28.346,613.545 28.346,613.701L28.346,630.709C28.346,630.865 28.474,630.992 28.63,630.992L36.85,630.992C37.134,630.992 36.85,630.709 36.85,630.992L36.85,659.055C36.85,659.211 36.978,659.339 37.134,659.339" style="fill:none;fill-rule:nonzero;stroke:rgb(255,0,0);stroke-width:0.1px;"/>
        <g transform="matrix(0.821584,0,0,0.905775,199.757,57.9447)">
            <rect x="724.238" y="541.591" width="106.957" height="87.627" style="fill:none;stroke:rgb(255,0,0);stroke-width:0.12px;stroke-miterlimit:1.5;"/>
        </g>
    </g>
    <g id="p-2">
        <path d="M625.89,659.339L656.787,659.339C657.071,659.339 656.787,659.055 656.787,659.339L656.787,667.559C656.787,667.715 656.915,667.843 657.071,667.843L674.079,667.843C674.235,667.843 674.362,667.715 674.362,667.559L674.362,659.339C674.362,659.055 674.079,659.339 674.362,659.339L690.803,659.339C691.087,659.339 690.803,659.055 690.803,659.339L690.803,667.559C690.803,667.715 690.931,667.843 691.087,667.843L708.094,667.843C708.25,667.843 708.378,667.715 708.378,667.559L708.378,659.339C708.378,659.055 708.094,659.339 708.378,659.339L724.819,659.339C725.102,659.339 724.819,659.055 724.819,659.339L724.819,667.559C724.819,667.715 724.946,667.843 725.102,667.843L742.11,667.843C742.266,667.843 742.394,667.715 742.394,667.559L742.394,659.339C742.394,659.055 742.11,659.339 742.394,659.339L758.835,659.339C759.118,659.339 758.835,659.055 758.835,659.339L758.835,667.559C758.835,667.715 758.962,667.843 759.118,667.843L776.126,667.843C776.282,667.843 776.409,667.715 776.409,667.559L776.409,659.339C776.409,659.055 776.126,659.339 776.409,659.339L792.85,659.339C793.134,659.339 792.85,659.055 792.85,659.339L792.85,667.559C792.85,667.715 792.978,667.843 793.134,667.843L810.142,667.843C810.298,667.843 810.425,667.715 810.425,667.559L810.425,659.339C810.425,659.055 810.142,659.339 810.425,659.339L826.866,659.339C827.15,659.339 826.866,659.055 826.866,659.339L826.866,667.559C826.866,667.715 826.994,667.843 827.15,667.843L844.157,667.843C844.313,667.843 844.441,667.715 844.441,667.559L844.441,659.339C844.441,659.055 844.157,659.339 844.441,659.339L860.882,659.339C861.165,659.339 860.882,659.055 860.882,659.339L860.882,667.559C860.882,667.715 861.009,667.843 861.165,667.843L878.173,667.843C878.329,667.843 878.457,667.715 878.457,667.559L878.457,659.339C878.457,659.055 878.173,659.339 878.457,659.339L917.858,659.339C918.014,659.339 918.142,659.211 918.142,659.055L918.142,630.709C918.142,630.553 918.014,630.425 917.858,630.425L909.638,630.425C909.354,630.425 909.638,630.709 909.638,630.425L909.638,613.984C909.638,613.701 909.354,613.984 909.638,613.984L917.858,613.984C918.014,613.984 918.142,613.857 918.142,613.701L918.142,596.693C918.142,596.537 918.014,596.409 917.858,596.409L909.638,596.409C909.354,596.409 909.638,596.693 909.638,596.409L909.638,579.969C909.638,579.685 909.354,579.969 909.638,579.969L917.858,579.969C918.014,579.969 918.142,579.841 918.142,579.685L918.142,562.677C918.142,562.521 918.014,562.394 917.858,562.394L909.638,562.394C909.354,562.394 909.638,562.677 909.638,562.394L909.638,545.953C909.638,545.669 909.354,545.953 909.638,545.953L917.858,545.953C918.014,545.953 918.142,545.825 918.142,545.669L918.142,517.323C918.142,517.167 918.014,517.039 917.858,517.039L878.457,517.039C878.173,517.039 878.457,517.323 878.457,517.039L878.457,508.819C878.457,508.663 878.329,508.535 878.173,508.535L861.165,508.535C861.009,508.535 860.882,508.663 860.882,508.819L860.882,517.039C860.882,517.323 861.165,517.039 860.882,517.039L844.441,517.039C844.157,517.039 844.441,517.323 844.441,517.039L844.441,508.819C844.441,508.663 844.313,508.535 844.157,508.535L827.15,508.535C826.994,508.535 826.866,508.663 826.866,508.819L826.866,517.039C826.866,517.323 827.15,517.039 826.866,517.039L810.425,517.039C810.142,517.039 810.425,517.323 810.425,517.039L810.425,508.819C810.425,508.663 810.298,508.535 810.142,508.535L793.134,508.535C792.978,508.535 792.85,508.663 792.85,508.819L792.85,517.039C792.85,517.323 793.134,517.039 792.85,517.039L776.409,517.039C776.126,517.039 776.409,517.323 776.409,517.039L776.409,508.819C776.409,508.663 776.282,508.535 776.126,508.535L759.118,508.535C758.962,508.535 758.835,508.663 758.835,508.819L758.835,517.039C758.835,517.323 759.118,517.039 758.835,517.039L742.394,517.039C742.11,517.039 742.394,517.323 742.394,517.039L742.394,508.819C742.394,508.663 742.266,508.535 742.11,508.535L725.102,508.535C724.946,508.535 724.819,508.663 724.819,508.819L724.819,517.039C724.819,517.323 725.102,517.039 724.819,517.039L708.378,517.039C708.094,517.039 708.378,517.323 708.378,517.039L708.378,508.819C708.378,508.663 708.25,508.535 708.094,508.535L691.087,508.535C690.931,508.535 690.803,508.663 690.803,508.819L690.803,517.039C690.803,517.323 691.087,517.039 690.803,517.039L674.362,517.039C674.079,517.039 674.362,517.323 674.362,517.039L674.362,508.819C674.362,508.663 674.235,508.535 674.079,508.535L657.071,508.535C656.915,508.535 656.787,508.663 656.787,508.819L656.787,517.039C656.787,517.323 657.071,517.039 656.787,517.039L617.386,517.039C617.23,517.039 617.102,517.167 617.102,517.323L617.102,545.669C617.102,545.825 617.23,545.953 617.386,545.953L625.606,545.953C625.89,545.953 625.606,545.669 625.606,545.953L625.606,562.394C625.606,562.677 625.89,562.394 625.606,562.394L617.386,562.394C617.23,562.394 617.102,562.521 617.102,562.677L617.102,579.685C617.102,579.841 617.23,579.969 617.386,579.969L625.606,579.969C625.89,579.969 625.606,579.685 625.606,579.969L625.606,596.409C625.606,596.693 625.89,596.409 625.606,596.409L617.386,596.409C617.23,596.409 617.102,596.537 617.102,596.693L617.102,613.701C617.102,613.857 617.23,613.984 617.386,613.984L625.606,613.984C625.89,613.984 625.606,613.701 625.606,613.984L625.606,630.425C625.606,630.709 625.89,630.425 625.606,630.425L617.386,630.425C617.23,630.425 617.102,630.553 617.102,630.709L617.102,659.055C617.102,659.211 617.23,659.339 617.386,659.339L625.89,659.339" style="fill:none;fill-rule:nonzero;stroke:rgb(255,0,0);stroke-width:0.1px;"/>
        <g transform="matrix(0.464048,0.267918,-0.384074,0.665236,265.717,120.262)">
            <path d="M167.043,586.097C167.043,581.005 161.117,576.871 153.818,576.871C146.518,576.871 140.592,581.005 140.592,586.097L140.592,696.804C140.592,701.895 146.518,706.029 153.818,706.029C161.117,706.029 167.043,701.895 167.043,696.804L167.043,586.097Z" style="fill:none;stroke:rgb(255,0,0);stroke-width:0.15px;stroke-miterlimit:1.5;"/>
        </g>
        <g transform="matrix(0.464048,0.267918,-0.384074,0.665236,307.1,120.262)">
            <path d="M167.043,586.097C167.043,581.005 161.117,576.871 153.818,576.871C146.518,576.871 140.592,581.005 140.592,586.097L140.592,696.804C140.592,701.895 146.518,706.029 153.818,706.029C161.117,706.029 167.043,701.895 167.043,696.804L167.043,586.097Z" style="fill:none;stroke:rgb(255,0,0);stroke-width:0.15px;stroke-miterlimit:1.5;"/>
        </g>
        <g transform="matrix(0.464048,0.267918,-0.384074,0.665236,348.482,120.262)">
            <path d="M167.043,586.097C167.043,581.005 161.117,576.871 153.818,576.871C146.518,576.871 140.592,581.005 140.592,586.097L140.592,696.804C140.592,701.895 146.518,706.029 153.818,706.029C161.117,706.029 167.043,701.895 167.043,696.804L167.043,586.097Z" style="fill:none;stroke:rgb(255,0,0);stroke-width:0.15px;stroke-miterlimit:1.5;"/>
        </g>
        <g transform="matrix(0.464048,0.267918,-0.384074,0.665236,389.865,120.262)">
            <path d="M167.043,586.097C167.043,581.005 161.117,576.871 153.818,576.871C146.518,576.871 140.592,581.005 140.592,586.097L140.592,696.804C140.592,701.895 146.518,706.029 153.818,706.029C161.117,706.029 167.043,701.895 167.043,696.804L167.043,586.097Z" style="fill:none;stroke:rgb(255,0,0);stroke-width:0.15px;stroke-miterlimit:1.5;"/>
        </g>
        <g transform="matrix(0.667133,0,0,0.667133,364.134,43.3807)">
            <circle cx="1153.78" cy="104.934" r="21.245" style="fill:none;stroke:rgb(255,0,0);stroke-width:0.15px;stroke-miterlimit:1.5;"/>
        </g>
        <g transform="matrix(0.464048,0.267918,-0.384074,0.665236,431.247,120.262)">
            <path d="M167.043,586.097C167.043,581.005 161.117,576.871 153.818,576.871C146.518,576.871 140.592,581.005 140.592,586.097L140.592,696.804C140.592,701.895 146.518,706.029 153.818,706.029C161.117,706.029 167.043,701.895 167.043,696.804L167.043,586.097Z" style="fill:none;stroke:rgb(255,0,0);stroke-width:0.15px;stroke-miterlimit:1.5;"/>
        </g>
        <g transform="matrix(0.464048,0.267918,-0.384074,0.665236,472.63,120.262)">
            <path d="M167.043,586.097C167.043,581.005 161.117,576.871 153.818,576.871C146.518,576.871 140.592,581.005 140.592,586.097L140.592,696.804C140.592,701.895 146.518,706.029 153.818,706.029C161.117,706.029 167.043,701.895 167.043,696.804L167.043,586.097Z" style="fill:none;stroke:rgb(255,0,0);stroke-width:0.15px;stroke-miterlimit:1.5;"/>
        </g>
        <g transform="matrix(0.464048,0.267918,-0.384074,0.665236,514.012,120.262)">
            <path d="M167.043,586.097C167.043,581.005 161.117,576.871 153.818,576.871C146.518,576.871 140.592,581.005 140.592,586.097L140.592,696.804C140.592,701.895 146.518,706.029 153.818,706.029C161.117,706.029 167.043,701.895 167.043,696.804L167.043,586.097Z" style="fill:none;stroke:rgb(255,0,0);stroke-width:0.15px;stroke-miterlimit:1.5;"/>
        </g>
        <g transform="matrix(0.464048,0.267918,-0.384074,0.665236,555.395,120.262)">
            <path d="M167.043,586.097C167.043,581.005 161.117,576.871 153.818,576.871C146.518,576.871 140.592,581.005 140.592,586.097L140.592,696.804C140.592,701.895 146.518,706.029 153.818,706.029C161.117,706.029 167.043,701.895 167.043,696.804L167.043,586.097Z" style="fill:none;stroke:rgb(255,0,0);stroke-width:0.15px;stroke-miterlimit:1.5;"/>
        </g>
        <g transform="matrix(0.464048,0.267918,-0.384074,0.665236,596.777,120.262)">
            <path d="M167.043,586.097C167.043,581.005 161.117,576.871 153.818,576.871C146.518,576.871 140.592,581.005 140.592,586.097L140.592,696.804C140.592,701.895 146.518,706.029 153.818,706.029C161.117,706.029 167.043,701.895 167.043,696.804L167.043,586.097Z" style="fill:none;stroke:rgb(255,0,0);stroke-width:0.15px;stroke-miterlimit:1.5;"/>
        </g>
        <g transform="matrix(0.464048,0.267918,-0.384074,0.665236,638.16,120.262)">
            <path d="M167.043,586.097C167.043,581.005 161.117,576.871 153.818,576.871C146.518,576.871 140.592,581.005 140.592,586.097L140.592,696.804C140.592,701.895 146.518,706.029 153.818,706.029C161.117,706.029 167.043,701.895 167.043,696.804L167.043,586.097Z" style="fill:none;stroke:rgb(255,0,0);stroke-width:0.15px;stroke-miterlimit:1.5;"/>
        </g>
        <g transform="matrix(0.464048,0.267918,-0.384074,0.665236,679.543,120.262)">
            <path d="M167.043,586.097C167.043,581.005 161.117,576.871 153.818,576.871C146.518,576.871 140.592,581.005 140.592,586.097L140.592,696.804C140.592,701.895 146.518,706.029 153.818,706.029C161.117,706.029 167.043,701.895 167.043,696.804L167.043,586.097Z" style="fill:none;stroke:rgb(255,0,0);stroke-width:0.15px;stroke-miterlimit:1.5;"/>
        </g>
        <g transform="matrix(0.464048,0.267918,-0.384074,0.665236,720.925,120.262)">
            <path d="M167.043,586.097C167.043,581.005 161.117,576.871 153.818,576.871C146.518,576.871 140.592,581.005 140.592,586.097L140.592,696.804C140.592,701.895 146.518,706.029 153.818,706.029C161.117,706.029 167.043,701.895 167.043,696.804L167.043,586.097Z" style="fill:none;stroke:rgb(255,0,0);stroke-width:0.15px;stroke-miterlimit:1.5;"/>
        </g>
        <g transform="matrix(1,0,0,1,-12.1482,-12.8892)">
            <path d="M129.906,394.187C129.906,384.413 121.971,376.478 112.197,376.478L76.779,376.478C67.006,376.478 59.071,384.413 59.071,394.187L59.071,429.604C59.071,439.378 67.006,447.313 76.779,447.313L112.197,447.313C121.971,447.313 129.906,439.378 129.906,429.604L129.906,394.187Z" style="fill:none;stroke:rgb(255,0,0);stroke-width:0.1px;stroke-miterlimit:1.5;"/>
        </g>
    </g>
    <g id="p-3">
        <path d="M625.89,495.78L656.787,495.78C657.071,495.78 656.787,495.496 656.787,495.78L656.787,504C656.787,504.156 656.915,504.283 657.071,504.283L674.079,504.283C674.235,504.283 674.362,504.156 674.362,504L674.362,439.019C674.362,438.735 860.882,438.703 860.882,438.987L860.882,504C860.882,504.156 861.009,504.283 861.165,504.283L878.173,504.283C878.329,504.283 878.457,504.156 878.457,504L878.457,495.78C878.457,495.496 878.173,495.78 878.457,495.78L917.858,495.78C918.014,495.78 918.142,495.652 918.142,495.496L918.142,467.15C918.142,466.994 918.014,466.866 917.858,466.866L909.638,466.866C909.354,466.866 909.638,467.15 909.638,466.866L909.638,450.425C909.638,450.142 909.354,450.425 909.638,450.425L917.858,450.425C918.014,450.425 918.142,450.298 918.142,450.142L918.142,433.134C918.142,432.978 918.014,432.85 917.858,432.85L909.638,432.85C909.354,432.85 909.638,433.134 909.638,432.85L909.638,416.409C909.638,416.126 909.354,416.409 909.638,416.409L917.858,416.409C918.014,416.409 918.142,416.282 918.142,416.126L918.142,399.118C918.142,398.962 918.014,398.835 917.858,398.835L909.638,398.835C909.354,398.835 909.638,399.118 909.638,398.835L909.638,382.394C909.638,382.11 909.354,382.394 909.638,382.394L917.858,382.394C918.014,382.394 918.142,382.266 918.142,382.11L918.142,353.764C918.142,353.608 918.014,353.48 917.858,353.48L878.457,353.48C878.173,353.48 878.457,353.764 878.457,353.48L878.457,345.26C878.457,345.104 878.329,344.976 878.173,344.976L861.165,344.976C861.009,344.976 860.882,345.104 860.882,345.26L860.882,353.48C860.882,353.764 861.165,353.48 860.882,353.48L844.441,353.48C844.157,353.48 844.441,353.764 844.441,353.48L844.441,345.26C844.441,345.104 844.313,344.976 844.157,344.976L827.15,344.976C826.994,344.976 826.866,345.104 826.866,345.26L826.866,353.48C826.866,353.764 827.15,353.48 826.866,353.48L810.425,353.48C810.142,353.48 810.425,353.764 810.425,353.48L810.425,345.26C810.425,345.104 810.298,344.976 810.142,344.976L793.134,344.976C792.978,344.976 792.85,345.104 792.85,345.26L792.85,353.48C792.85,353.764 793.134,353.48 792.85,353.48L776.409,353.48C776.126,353.48 776.409,353.764 776.409,353.48L776.409,345.26C776.409,345.104 776.282,344.976 776.126,344.976L759.118,344.976C758.962,344.976 758.835,345.104 758.835,345.26L758.835,353.48C758.835,353.764 759.118,353.48 758.835,353.48L742.394,353.48C742.11,353.48 742.394,353.764 742.394,353.48L742.394,345.26C742.394,345.104 742.266,344.976 742.11,344.976L725.102,344.976C724.946,344.976 724.819,345.104 724.819,345.26L724.819,353.48C724.819,353.764 725.102,353.48 724.819,353.48L708.378,353.48C708.094,353.48 708.378,353.764 708.378,353.48L708.378,345.26C708.378,345.104 708.25,344.976 708.094,344.976L691.087,344.976C690.931,344.976 690.803,345.104 690.803,345.26L690.803,353.48C690.803,353.764 691.087,353.48 690.803,353.48L674.362,353.48C674.079,353.48 674.362,353.764 674.362,353.48L674.362,345.26C674.362,345.104 674.235,344.976 674.079,344.976L657.071,344.976C656.915,344.976 656.787,345.104 656.787,345.26L656.787,353.48C656.787,353.764 657.071,353.48 656.787,353.48L617.386,353.48C617.23,353.48 617.102,353.608 617.102,353.764L617.102,382.11C617.102,382.266 617.23,382.394 617.386,382.394L625.606,382.394C625.89,382.394 625.606,382.11 625.606,382.394L625.606,398.835C625.606,399.118 625.89,398.835 625.606,398.835L617.386,398.835C617.23,398.835 617.102,398.962 617.102,399.118L617.102,495.496C617.102,495.652 617.23,495.78 617.386,495.78L625.89,495.78" style="fill:none;fill-rule:nonzero;stroke:rgb(255,0,0);stroke-width:0.1px;"/>
    </g>
    <g id="p-4">
        <path d="M37.134,495.78L56.693,495.78C56.976,495.78 56.693,495.496 56.693,495.78L56.693,504C56.693,504.156 56.82,504.283 56.976,504.283L73.984,504.283C74.14,504.283 74.268,504.156 74.268,504L74.268,495.78C74.268,495.496 73.984,495.78 74.268,495.78L90.709,495.78C90.992,495.78 90.709,495.496 90.709,495.78L90.709,504C90.709,504.156 90.836,504.283 90.992,504.283L108,504.283C108.156,504.283 108.283,504.156 108.283,504L108.283,495.78C108.283,495.496 108,495.78 108.283,495.78L124.724,495.78C125.008,495.78 124.724,495.496 124.724,495.78L124.724,504C124.724,504.156 124.852,504.283 125.008,504.283L142.016,504.283C142.172,504.283 142.299,504.156 142.299,504L142.299,495.78C142.299,495.496 142.016,495.78 142.299,495.78L158.74,495.78C159.024,495.78 158.74,495.496 158.74,495.78L158.74,504C158.74,504.156 158.868,504.283 159.024,504.283L176.031,504.283C176.187,504.283 176.315,504.156 176.315,504L176.315,495.78C176.315,495.496 176.031,495.78 176.315,495.78L192.756,495.78C193.039,495.78 192.756,495.496 192.756,495.78L192.756,504C192.756,504.156 192.883,504.283 193.039,504.283L210.047,504.283C210.203,504.283 210.331,504.156 210.331,504L210.331,495.78C210.331,495.496 210.047,495.78 210.331,495.78L226.772,495.78C227.055,495.78 226.772,495.496 226.772,495.78L226.772,504C226.772,504.156 226.899,504.283 227.055,504.283L244.063,504.283C244.219,504.283 244.346,504.156 244.346,504L244.346,495.78C244.346,495.496 244.063,495.78 244.346,495.78L260.787,495.78C261.071,495.78 260.787,495.496 260.787,495.78L260.787,504C260.787,504.156 260.915,504.283 261.071,504.283L278.079,504.283C278.235,504.283 278.362,504.156 278.362,504L278.362,495.78C278.362,495.708 277.995,415.843 278.279,415.843C278.279,415.843 278.434,415.843 278.279,415.843L604.346,416.082C604.063,416.082 604.346,416.366 604.346,416.082L604.346,399.402C604.346,399.118 604.063,399.402 604.346,399.402L612.567,399.402C612.723,399.402 612.85,399.274 612.85,399.118L612.85,382.11C612.85,381.954 612.723,381.827 612.567,381.827L604.346,381.827C604.063,381.827 604.346,382.11 604.346,381.827L604.346,353.764C604.346,353.608 604.219,353.48 604.063,353.48L584.504,353.48C584.22,353.48 584.504,353.764 584.504,353.48L584.504,345.26C584.504,345.104 584.376,344.976 584.22,344.976L567.213,344.976C567.057,344.976 566.929,345.104 566.929,345.26L566.929,353.48C566.929,353.764 567.213,353.48 566.929,353.48L550.488,353.48C550.205,353.48 550.488,353.764 550.488,353.48L550.488,345.26C550.488,345.104 550.361,344.976 550.205,344.976L533.197,344.976C533.041,344.976 532.913,345.104 532.913,345.26L532.913,353.48C532.913,353.764 533.197,353.48 532.913,353.48L516.472,353.48C516.189,353.48 516.472,353.764 516.472,353.48L516.472,345.26C516.472,345.104 516.345,344.976 516.189,344.976L499.181,344.976C499.025,344.976 498.898,345.104 498.898,345.26L498.898,353.48C498.898,353.764 499.181,353.48 498.898,353.48L482.457,353.48C482.173,353.48 482.457,353.764 482.457,353.48L482.457,345.26C482.457,345.104 482.329,344.976 482.173,344.976L465.165,344.976C465.009,344.976 464.882,345.104 464.882,345.26L464.882,353.48C464.882,353.764 465.165,353.48 464.882,353.48L448.441,353.48C448.157,353.48 448.441,353.764 448.441,353.48L448.441,345.26C448.441,345.104 448.313,344.976 448.157,344.976L431.15,344.976C430.994,344.976 430.866,345.104 430.866,345.26L430.866,353.48C430.866,353.764 431.15,353.48 430.866,353.48L414.425,353.48C414.142,353.48 414.425,353.764 414.425,353.48L414.425,345.26C414.425,345.104 414.298,344.976 414.142,344.976L397.134,344.976C396.978,344.976 396.85,345.104 396.85,345.26L396.85,353.48C396.85,353.764 397.134,353.48 396.85,353.48L380.409,353.48C380.126,353.48 380.409,353.764 380.409,353.48L380.409,345.26C380.409,345.104 380.282,344.976 380.126,344.976L363.118,344.976C362.962,344.976 362.835,345.104 362.835,345.26L362.835,353.48C362.835,353.764 363.118,353.48 362.835,353.48L346.394,353.48C346.11,353.48 346.394,353.764 346.394,353.48L346.394,345.26C346.394,345.104 346.266,344.976 346.11,344.976L329.102,344.976C328.946,344.976 328.819,345.104 328.819,345.26L328.819,353.48C328.819,353.764 329.102,353.48 328.819,353.48L312.378,353.48C312.094,353.48 312.378,353.764 312.378,353.48L312.378,345.26C312.378,345.104 312.25,344.976 312.094,344.976L295.087,344.976C294.931,344.976 294.803,345.104 294.803,345.26L294.803,353.48C294.803,353.764 295.087,353.48 294.803,353.48L278.362,353.48C278.079,353.48 278.362,353.764 278.362,353.48L278.362,345.26C278.362,345.104 278.235,344.976 278.079,344.976L261.071,344.976C260.915,344.976 260.787,345.104 260.787,345.26L260.787,353.48C260.787,353.764 261.071,353.48 260.787,353.48L244.346,353.48C244.063,353.48 244.346,353.764 244.346,353.48L244.346,345.26C244.346,345.104 244.219,344.976 244.063,344.976L227.055,344.976C226.899,344.976 226.772,345.104 226.772,345.26L226.772,353.48C226.772,353.764 227.055,353.48 226.772,353.48L210.331,353.48C210.047,353.48 210.331,353.764 210.331,353.48L210.331,345.26C210.331,345.104 210.203,344.976 210.047,344.976L193.039,344.976C192.883,344.976 192.756,345.104 192.756,345.26L192.756,353.48C192.756,353.764 193.039,353.48 192.756,353.48L176.315,353.48C176.031,353.48 176.315,353.764 176.315,353.48L176.315,345.26C176.315,345.104 176.187,344.976 176.031,344.976L159.024,344.976C158.868,344.976 158.74,345.104 158.74,345.26L158.74,353.48C158.74,353.764 159.024,353.48 158.74,353.48L142.299,353.48C142.016,353.48 142.299,353.764 142.299,353.48L142.299,345.26C142.299,345.104 142.172,344.976 142.016,344.976L125.008,344.976C124.852,344.976 124.724,345.104 124.724,345.26L124.724,353.48C124.724,353.764 125.008,353.48 124.724,353.48L108.283,353.48C108,353.48 108.283,353.764 108.283,353.48L108.283,345.26C108.283,345.104 108.156,344.976 108,344.976L90.992,344.976C90.836,344.976 90.709,345.104 90.709,345.26L90.709,353.48C90.709,353.764 90.992,353.48 90.709,353.48L74.268,353.48C73.984,353.48 74.268,353.764 74.268,353.48L74.268,345.26C74.268,345.104 74.14,344.976 73.984,344.976L56.976,344.976C56.82,344.976 56.693,345.104 56.693,345.26L56.693,353.48C56.693,353.764 56.976,353.48 56.693,353.48L37.134,353.48C36.978,353.48 36.85,353.608 36.85,353.764L36.85,381.827C36.85,382.11 37.134,381.827 36.85,381.827L28.63,381.827C28.474,381.827 28.346,381.954 28.346,382.11L28.346,399.118C28.346,399.274 28.474,399.402 28.63,399.402L36.85,399.402C37.134,399.402 36.85,399.118 36.85,399.402L36.85,415.843C36.85,416.126 37.134,415.843 36.85,415.843L28.63,415.843C28.474,415.843 28.346,415.97 28.346,416.126L28.346,433.134C28.346,433.29 28.474,433.417 28.63,433.417L36.85,433.417C37.134,433.417 36.85,433.134 36.85,433.417L36.85,449.858C36.85,450.142 37.134,449.858 36.85,449.858L28.63,449.858C28.474,449.858 28.346,449.986 28.346,450.142L28.346,467.15C28.346,467.306 28.474,467.433 28.63,467.433L36.85,467.433C37.134,467.433 36.85,467.15 36.85,467.433L36.85,495.496C36.85,495.652 36.978,495.78 37.134,495.78" style="fill:none;fill-rule:nonzero;stroke:rgb(255,0,0);stroke-width:0.1px;"/>
    </g>
    <g id="p-5">
        <g>
            <path d="M385.512,334.772L369.071,334.772C368.787,334.772 369.071,335.055 369.071,334.772L369.071,326.835C369.071,326.551 368.787,326.835 369.071,326.835L385.512,326.835C385.795,326.835 385.512,326.551 385.512,326.835L385.512,334.772C385.512,335.055 385.795,334.772 385.512,334.772Z" style="fill:none;fill-rule:nonzero;stroke:rgb(255,0,0);stroke-width:0.1px;"/>
            <path d="M419.528,334.772L403.087,334.772C402.803,334.772 403.087,335.055 403.087,334.772L403.087,326.835C403.087,326.551 402.803,326.835 403.087,326.835L419.528,326.835C419.811,326.835 419.528,326.551 419.528,326.835L419.528,334.772C419.528,335.055 419.811,334.772 419.528,334.772Z" style="fill:none;fill-rule:nonzero;stroke:rgb(255,0,0);stroke-width:0.1px;"/>
            <path d="M453.543,334.772L437.102,334.772C436.819,334.772 437.102,335.055 437.102,334.772L437.102,326.835C437.102,326.551 436.819,326.835 437.102,326.835L453.543,326.835C453.827,326.835 453.543,326.551 453.543,326.835L453.543,334.772C453.543,335.055 453.827,334.772 453.543,334.772Z" style="fill:none;fill-rule:nonzero;stroke:rgb(255,0,0);stroke-width:0.1px;"/>
            <path d="M487.559,334.772L471.118,334.772C470.835,334.772 471.118,335.055 471.118,334.772L471.118,326.835C471.118,326.551 470.835,326.835 471.118,326.835L487.559,326.835C487.843,326.835 487.559,326.551 487.559,326.835L487.559,334.772C487.559,335.055 487.843,334.772 487.559,334.772Z" style="fill:none;fill-rule:nonzero;stroke:rgb(255,0,0);stroke-width:0.1px;"/>
            <path d="M521.575,334.772L505.134,334.772C504.85,334.772 505.134,335.055 505.134,334.772L505.134,326.835C505.134,326.551 504.85,326.835 505.134,326.835L521.575,326.835C521.858,326.835 521.575,326.551 521.575,326.835L521.575,334.772C521.575,335.055 521.858,334.772 521.575,334.772Z" style="fill:none;fill-rule:nonzero;stroke:rgb(255,0,0);stroke-width:0.1px;"/>
            <path d="M555.591,334.772L539.15,334.772C538.866,334.772 539.15,335.055 539.15,334.772L539.15,326.835C539.15,326.551 538.866,326.835 539.15,326.835L555.591,326.835C555.874,326.835 555.591,326.551 555.591,326.835L555.591,334.772C555.591,335.055 555.874,334.772 555.591,334.772Z" style="fill:none;fill-rule:nonzero;stroke:rgb(255,0,0);stroke-width:0.1px;"/>
            <path d="M589.606,334.772L573.165,334.772C572.882,334.772 573.165,335.055 573.165,334.772L573.165,326.835C573.165,326.551 572.882,326.835 573.165,326.835L589.606,326.835C589.89,326.835 589.606,326.551 589.606,326.835L589.606,334.772C589.606,335.055 589.89,334.772 589.606,334.772Z" style="fill:none;fill-rule:nonzero;stroke:rgb(255,0,0);stroke-width:0.1px;"/>
            <path d="M618.236,278.362L618.236,294.803C618.236,295.087 618.52,294.803 618.236,294.803L610.299,294.803C610.016,294.803 610.299,295.087 610.299,294.803L610.299,278.362C610.299,278.079 610.016,278.362 610.299,278.362L618.236,278.362C618.52,278.362 618.236,278.079 618.236,278.362Z" style="fill:none;fill-rule:nonzero;stroke:rgb(255,0,0);stroke-width:0.1px;"/>
            <path d="M618.236,244.346L618.236,260.787C618.236,261.071 618.52,260.787 618.236,260.787L610.299,260.787C610.016,260.787 610.299,261.071 610.299,260.787L610.299,244.346C610.299,244.063 610.016,244.346 610.299,244.346L618.236,244.346C618.52,244.346 618.236,244.063 618.236,244.346Z" style="fill:none;fill-rule:nonzero;stroke:rgb(255,0,0);stroke-width:0.1px;"/>
            <path d="M618.236,210.331L618.236,226.772C618.236,227.055 618.52,226.772 618.236,226.772L610.299,226.772C610.016,226.772 610.299,227.055 610.299,226.772L610.299,210.331C610.299,210.047 610.016,210.331 610.299,210.331L618.236,210.331C618.52,210.331 618.236,210.047 618.236,210.331Z" style="fill:none;fill-rule:nonzero;stroke:rgb(255,0,0);stroke-width:0.1px;"/>
            <path d="M618.236,176.315L618.236,192.756C618.236,193.039 618.52,192.756 618.236,192.756L610.299,192.756C610.016,192.756 610.299,193.039 610.299,192.756L610.299,176.315C610.299,176.031 610.016,176.315 610.299,176.315L618.236,176.315C618.52,176.315 618.236,176.031 618.236,176.315Z" style="fill:none;fill-rule:nonzero;stroke:rgb(255,0,0);stroke-width:0.1px;"/>
            <path d="M618.236,142.299L618.236,158.74C618.236,159.024 618.52,158.74 618.236,158.74L610.299,158.74C610.016,158.74 610.299,159.024 610.299,158.74L610.299,142.299C610.299,142.016 610.016,142.299 610.299,142.299L618.236,142.299C618.52,142.299 618.236,142.016 618.236,142.299Z" style="fill:none;fill-rule:nonzero;stroke:rgb(255,0,0);stroke-width:0.1px;"/>
            <path d="M618.236,108.283L618.236,124.724C618.236,125.008 618.52,124.724 618.236,124.724L610.299,124.724C610.016,124.724 610.299,125.008 610.299,124.724L610.299,108.283C610.299,108 610.016,108.283 610.299,108.283L618.236,108.283C618.52,108.283 618.236,108 618.236,108.283Z" style="fill:none;fill-rule:nonzero;stroke:rgb(255,0,0);stroke-width:0.1px;"/>
            <path d="M618.236,74.268L618.236,90.709C618.236,90.992 618.52,90.709 618.236,90.709L610.299,90.709C610.016,90.709 610.299,90.992 610.299,90.709L610.299,74.268C610.299,73.984 610.016,74.268 610.299,74.268L618.236,74.268C618.52,74.268 618.236,73.984 618.236,74.268Z" style="fill:none;fill-rule:nonzero;stroke:rgb(255,0,0);stroke-width:0.1px;"/>
            <path d="M573.165,34.299L589.606,34.299C589.89,34.299 589.606,34.016 589.606,34.299L589.606,42.236C589.606,42.52 589.89,42.236 589.606,42.236L573.165,42.236C572.882,42.236 573.165,42.52 573.165,42.236L573.165,34.299C573.165,34.016 572.882,34.299 573.165,34.299Z" style="fill:none;fill-rule:nonzero;stroke:rgb(255,0,0);stroke-width:0.1px;"/>
            <path d="M539.15,34.299L555.591,34.299C555.874,34.299 555.591,34.016 555.591,34.299L555.591,42.236C555.591,42.52 555.874,42.236 555.591,42.236L539.15,42.236C538.866,42.236 539.15,42.52 539.15,42.236L539.15,34.299C539.15,34.016 538.866,34.299 539.15,34.299Z" style="fill:none;fill-rule:nonzero;stroke:rgb(255,0,0);stroke-width:0.1px;"/>
            <path d="M505.134,34.299L521.575,34.299C521.858,34.299 521.575,34.016 521.575,34.299L521.575,42.236C521.575,42.52 521.858,42.236 521.575,42.236L505.134,42.236C504.85,42.236 505.134,42.52 505.134,42.236L505.134,34.299C505.134,34.016 504.85,34.299 505.134,34.299Z" style="fill:none;fill-rule:nonzero;stroke:rgb(255,0,0);stroke-width:0.1px;"/>
            <path d="M471.118,34.299L487.559,34.299C487.843,34.299 487.559,34.016 487.559,34.299L487.559,42.236C487.559,42.52 487.843,42.236 487.559,42.236L471.118,42.236C470.835,42.236 471.118,42.52 471.118,42.236L471.118,34.299C471.118,34.016 470.835,34.299 471.118,34.299Z" style="fill:none;fill-rule:nonzero;stroke:rgb(255,0,0);stroke-width:0.1px;"/>
            <path d="M437.102,34.299L453.543,34.299C453.827,34.299 453.543,34.016 453.543,34.299L453.543,42.236C453.543,42.52 453.827,42.236 453.543,42.236L437.102,42.236C436.819,42.236 437.102,42.52 437.102,42.236L437.102,34.299C437.102,34.016 436.819,34.299 437.102,34.299Z" style="fill:none;fill-rule:nonzero;stroke:rgb(255,0,0);stroke-width:0.1px;"/>
            <path d="M403.087,34.299L419.528,34.299C419.811,34.299 419.528,34.016 419.528,34.299L419.528,42.236C419.528,42.52 419.811,42.236 419.528,42.236L403.087,42.236C402.803,42.236 403.087,42.52 403.087,42.236L403.087,34.299C403.087,34.016 402.803,34.299 403.087,34.299Z" style="fill:none;fill-rule:nonzero;stroke:rgb(255,0,0);stroke-width:0.1px;"/>
            <path d="M369.071,34.299L385.512,34.299C385.795,34.299 385.512,34.016 385.512,34.299L385.512,42.236C385.512,42.52 385.795,42.236 385.512,42.236L369.071,42.236C368.787,42.236 369.071,42.52 369.071,42.236L369.071,34.299C369.071,34.016 368.787,34.299 369.071,34.299Z" style="fill:none;fill-rule:nonzero;stroke:rgb(255,0,0);stroke-width:0.1px;"/>
            <path d="M335.055,34.299L351.496,34.299C351.78,34.299 351.496,34.016 351.496,34.299L351.496,42.236C351.496,42.52 351.78,42.236 351.496,42.236L335.055,42.236C334.772,42.236 335.055,42.52 335.055,42.236L335.055,34.299C335.055,34.016 334.772,34.299 335.055,34.299Z" style="fill:none;fill-rule:nonzero;stroke:rgb(255,0,0);stroke-width:0.1px;"/>
            <path d="M301.039,34.299L317.48,34.299C317.764,34.299 317.48,34.016 317.48,34.299L317.48,42.236C317.48,42.52 317.764,42.236 317.48,42.236L301.039,42.236C300.756,42.236 301.039,42.52 301.039,42.236L301.039,34.299C301.039,34.016 300.756,34.299 301.039,34.299Z" style="fill:none;fill-rule:nonzero;stroke:rgb(255,0,0);stroke-width:0.1px;"/>
            <path d="M267.024,34.299L283.465,34.299C283.748,34.299 283.465,34.016 283.465,34.299L283.465,42.236C283.465,42.52 283.748,42.236 283.465,42.236L267.024,42.236C266.74,42.236 267.024,42.52 267.024,42.236L267.024,34.299C267.024,34.016 266.74,34.299 267.024,34.299Z" style="fill:none;fill-rule:nonzero;stroke:rgb(255,0,0);stroke-width:0.1px;"/>
            <path d="M233.008,34.299L249.449,34.299C249.732,34.299 249.449,34.016 249.449,34.299L249.449,42.236C249.449,42.52 249.732,42.236 249.449,42.236L233.008,42.236C232.724,42.236 233.008,42.52 233.008,42.236L233.008,34.299C233.008,34.016 232.724,34.299 233.008,34.299Z" style="fill:none;fill-rule:nonzero;stroke:rgb(255,0,0);stroke-width:0.1px;"/>
            <path d="M198.992,34.299L215.433,34.299C215.717,34.299 215.433,34.016 215.433,34.299L215.433,42.236C215.433,42.52 215.717,42.236 215.433,42.236L198.992,42.236C198.709,42.236 198.992,42.52 198.992,42.236L198.992,34.299C198.992,34.016 198.709,34.299 198.992,34.299Z" style="fill:none;fill-rule:nonzero;stroke:rgb(255,0,0);stroke-width:0.1px;"/>
            <path d="M164.976,34.299L181.417,34.299C181.701,34.299 181.417,34.016 181.417,34.299L181.417,42.236C181.417,42.52 181.701,42.236 181.417,42.236L164.976,42.236C164.693,42.236 164.976,42.52 164.976,42.236L164.976,34.299C164.976,34.016 164.693,34.299 164.976,34.299Z" style="fill:none;fill-rule:nonzero;stroke:rgb(255,0,0);stroke-width:0.1px;"/>
            <path d="M130.961,34.299L147.402,34.299C147.685,34.299 147.402,34.016 147.402,34.299L147.402,42.236C147.402,42.52 147.685,42.236 147.402,42.236L130.961,42.236C130.677,42.236 130.961,42.52 130.961,42.236L130.961,34.299C130.961,34.016 130.677,34.299 130.961,34.299Z" style="fill:none;fill-rule:nonzero;stroke:rgb(255,0,0);stroke-width:0.1px;"/>
            <path d="M96.945,34.299L113.386,34.299C113.669,34.299 113.386,34.016 113.386,34.299L113.386,42.236C113.386,42.52 113.669,42.236 113.386,42.236L96.945,42.236C96.661,42.236 96.945,42.52 96.945,42.236L96.945,34.299C96.945,34.016 96.661,34.299 96.945,34.299Z" style="fill:none;fill-rule:nonzero;stroke:rgb(255,0,0);stroke-width:0.1px;"/>
            <path d="M62.929,34.299L79.37,34.299C79.654,34.299 79.37,34.016 79.37,34.299L79.37,42.236C79.37,42.52 79.654,42.236 79.37,42.236L62.929,42.236C62.646,42.236 62.929,42.52 62.929,42.236L62.929,34.299C62.929,34.016 62.646,34.299 62.929,34.299Z" style="fill:none;fill-rule:nonzero;stroke:rgb(255,0,0);stroke-width:0.1px;"/>
            <path d="M34.299,90.709L34.299,74.268C34.299,73.984 34.016,74.268 34.299,74.268L42.236,74.268C42.52,74.268 42.236,73.984 42.236,74.268L42.236,90.709C42.236,90.992 42.52,90.709 42.236,90.709L34.299,90.709C34.016,90.709 34.299,90.992 34.299,90.709Z" style="fill:none;fill-rule:nonzero;stroke:rgb(255,0,0);stroke-width:0.1px;"/>
            <path d="M34.299,294.803L34.299,278.362C34.299,278.079 34.016,278.362 34.299,278.362L42.236,278.362C42.52,278.362 42.236,278.079 42.236,278.362L42.236,294.803C42.236,295.087 42.52,294.803 42.236,294.803L34.299,294.803C34.016,294.803 34.299,295.087 34.299,294.803Z" style="fill:none;fill-rule:nonzero;stroke:rgb(255,0,0);stroke-width:0.1px;"/>
        </g>
        <path d="M28.63,340.724L623.906,340.724C624.061,340.724 624.189,340.597 624.189,340.441L624.189,28.63C624.189,28.474 624.061,28.346 623.906,28.346L28.63,28.346C28.474,28.346 28.346,28.474 28.346,28.63L28.346,340.441C28.346,340.597 28.474,340.724 28.63,340.724" style="fill:none;fill-rule:nonzero;stroke:rgb(255,0,0);stroke-width:0.1px;"/>
        <g>
            <g transform="matrix(0.127759,-4.14956e-17,-4.14956e-17,-0.127759,-379.897,303.798)">
                <path d="M3389,1599.92C3409,1599.92 3424,1615.92 3424,1635.92C3424,1655.92 3409,1670.92 3389,1670.92C3369,1670.92 3353,1655.92 3353,1635.92C3353,1615.92 3369,1599.92 3389,1599.92Z" style="fill:none;fill-rule:nonzero;stroke:rgb(255,0,0);stroke-width:0.78px;stroke-miterlimit:10;"/>
            </g>
            <g transform="matrix(0.127759,-4.14956e-17,-4.14956e-17,-0.127759,-77.2202,303.798)">
                <path d="M2106,1599.92C2126,1599.92 2141,1615.92 2141,1635.92C2141,1655.92 2126,1670.92 2106,1670.92C2086,1670.92 2070,1655.92 2070,1635.92C2070,1615.92 2086,1599.92 2106,1599.92Z" style="fill:none;fill-rule:nonzero;stroke:rgb(255,0,0);stroke-width:0.78px;stroke-miterlimit:10;"/>
            </g>
            <g transform="matrix(0.127759,-4.14956e-17,-4.14956e-17,-0.127759,-379.897,662.15)">
                <path d="M3389,3118.92C3409,3118.92 3424,3134.92 3424,3154.92C3424,3174.92 3409,3189.92 3389,3189.92C3369,3189.92 3353,3174.92 3353,3154.92C3353,3134.92 3369,3118.92 3389,3118.92Z" style="fill:none;fill-rule:nonzero;stroke:rgb(255,0,0);stroke-width:0.78px;stroke-miterlimit:10;"/>
            </g>
            <g transform="matrix(0.127759,-4.14956e-17,-4.14956e-17,-0.127759,-77.2202,662.15)">
                <path d="M2106,3118.92C2126,3118.92 2141,3134.92 2141,3154.92C2141,3174.92 2126,3189.92 2106,3189.92C2086,3189.92 2070,3174.92 2070,3154.92C2070,3134.92 2086,3118.92 2106,3118.92Z" style="fill:none;fill-rule:nonzero;stroke:rgb(255,0,0);stroke-width:0.78px;stroke-miterlimit:10;"/>
            </g>
        </g>
        <g id="path3132" transform="matrix(1.09288e-16,-1.77694,1.77694,1.09288e-16,-260.803,370.092)">
            <path d="M25.254,351.316L129.254,351.316L129.254,347.316L133.254,343.316L133.254,291.316L129.254,287.316L129.254,269.316L127.254,267.316L25.254,267.316L25.254,351.316Z" style="fill:none;fill-rule:nonzero;stroke:rgb(0,0,255);stroke-width:0.06px;"/>
        </g>
        <g>
            <g transform="matrix(-0.108154,3.50108e-17,-3.50108e-17,-0.108154,419.858,260.047)">
                <path d="M3403,1622.92C3445,1622.92 3480,1588.92 3480,1545.92L3480,1544.92" style="fill:none;fill-rule:nonzero;stroke:rgb(0,0,255);stroke-width:0.67px;stroke-miterlimit:10;"/>
            </g>
            <g transform="matrix(-0.108154,3.50108e-17,-3.50108e-17,-0.108154,419.858,251.395)">
                <path d="M2093,1543.92L3403,1543.92" style="fill:none;fill-rule:nonzero;stroke:rgb(0,0,255);stroke-width:0.67px;stroke-miterlimit:10;"/>
            </g>
            <g transform="matrix(-0.108154,3.50108e-17,-3.50108e-17,-0.108154,419.858,260.047)">
                <path d="M2015,1544.92L2015,1545.92C2015,1588.92 2049,1622.92 2092,1622.92L2093,1622.92" style="fill:none;fill-rule:nonzero;stroke:rgb(0,0,255);stroke-width:0.67px;stroke-miterlimit:10;"/>
            </g>
            <g transform="matrix(3.50108e-17,0.108154,0.108154,-3.50108e-17,-244.039,-171.642)">
                <path d="M2446.5,2657.42L4515.5,2657.42" style="fill:none;fill-rule:nonzero;stroke:rgb(0,0,255);stroke-width:0.67px;stroke-miterlimit:10;"/>
            </g>
            <g transform="matrix(-3.50108e-17,-0.108154,-0.108154,3.50108e-17,489.447,422.666)">
                <path d="M979.5,2657.42L3048.5,2657.42" style="fill:none;fill-rule:nonzero;stroke:rgb(0,0,255);stroke-width:0.67px;stroke-miterlimit:10;"/>
            </g>
            <g transform="matrix(0.0764767,0.0764767,0.0764767,-0.0764767,-500.84,342.988)">
                <path d="M3387.05,3730.42C3417.46,3701.43 3465.54,3701.43 3495.95,3730.42" style="fill:none;fill-rule:nonzero;stroke:rgb(0,0,255);stroke-width:0.67px;stroke-miterlimit:10;"/>
            </g>
            <g transform="matrix(0.108154,-3.50108e-17,-3.50108e-17,-0.108154,-174.558,733.114)">
                <path d="M2093,3770.92L3403,3770.92" style="fill:none;fill-rule:nonzero;stroke:rgb(0,0,255);stroke-width:0.67px;stroke-miterlimit:10;"/>
            </g>
            <g transform="matrix(-0.108154,3.50108e-17,-3.50108e-17,-0.108154,419.858,724.354)">
                <path d="M2093,3691.92L2092,3691.92C2049,3691.92 2015,3726.92 2015,3768.92" style="fill:none;fill-rule:nonzero;stroke:rgb(0,0,255);stroke-width:0.67px;stroke-miterlimit:10;"/>
            </g>
        </g>
        <g>
            <g id="path4253" transform="matrix(1.09288e-16,-1.77694,1.77694,1.09288e-16,-260.803,352.322)">
                <path d="M121.75,339.316C121.75,339.316 121.75,339.316 121.75,339.316C121.75,340.686 120.623,341.813 119.254,341.813C117.884,341.813 116.758,340.686 116.758,339.316C116.758,339.316 116.758,339.316 116.758,339.316C116.758,337.947 117.884,336.82 119.254,336.82C120.623,336.82 121.75,337.947 121.75,339.316Z" style="fill:none;fill-rule:nonzero;stroke:rgb(255,0,0);stroke-width:0.06px;"/>
            </g>
            <g id="path4371" transform="matrix(1.09288e-16,-1.77694,1.77694,1.09288e-16,-338.988,352.322)">
                <path d="M121.75,339.316C121.75,339.316 121.75,339.316 121.75,339.316C121.75,340.686 120.623,341.813 119.254,341.813C117.884,341.813 116.758,340.686 116.758,339.316C116.758,339.316 116.758,339.316 116.758,339.316C116.758,337.947 117.884,336.82 119.254,336.82C120.623,336.82 121.75,337.947 121.75,339.316Z" style="fill:none;fill-rule:nonzero;stroke:rgb(255,0,0);stroke-width:0.06px;"/>
            </g>
            <g id="path4355" transform="matrix(1.09288e-16,-1.77694,1.77694,1.09288e-16,-381.635,494.477)">
                <path d="M121.75,339.316C121.75,339.316 121.75,339.316 121.75,339.316C121.75,340.686 120.623,341.813 119.254,341.813C117.884,341.813 116.758,340.686 116.758,339.316C116.758,339.316 116.758,339.316 116.758,339.316C116.758,337.947 117.884,336.82 119.254,336.82C120.623,336.82 121.75,337.947 121.75,339.316Z" style="fill:none;fill-rule:nonzero;stroke:rgb(255,0,0);stroke-width:0.06px;"/>
            </g>
            <g id="path4554" transform="matrix(1.09288e-16,-1.77694,1.77694,1.09288e-16,-246.587,498.031)">
                <path d="M121.75,339.316C121.75,339.316 121.75,339.316 121.75,339.316C121.75,340.686 120.623,341.813 119.254,341.813C117.884,341.813 116.758,340.686 116.758,339.316C116.758,339.316 116.758,339.316 116.758,339.316C116.758,337.947 117.884,336.82 119.254,336.82C120.623,336.82 121.75,337.947 121.75,339.316Z" style="fill:none;fill-rule:nonzero;stroke:rgb(255,0,0);stroke-width:0.06px;"/>
            </g>
        </g>
    </g>
    <g id="p-6">
        <g>
            <path d="M679.465,334.772L663.024,334.772C662.74,334.772 663.024,335.055 663.024,334.772L663.024,326.835C663.024,326.551 662.74,326.835 663.024,326.835L679.465,326.835C679.748,326.835 679.465,326.551 679.465,326.835L679.465,334.772C679.465,335.055 679.748,334.772 679.465,334.772Z" style="fill:none;fill-rule:nonzero;stroke:rgb(255,0,0);stroke-width:0.1px;"/>
            <path d="M713.48,334.772L697.039,334.772C696.756,334.772 697.039,335.055 697.039,334.772L697.039,326.835C697.039,326.551 696.756,326.835 697.039,326.835L713.48,326.835C713.764,326.835 713.48,326.551 713.48,326.835L713.48,334.772C713.48,335.055 713.764,334.772 713.48,334.772Z" style="fill:none;fill-rule:nonzero;stroke:rgb(255,0,0);stroke-width:0.1px;"/>
            <path d="M747.496,334.772L731.055,334.772C730.772,334.772 731.055,335.055 731.055,334.772L731.055,326.835C731.055,326.551 730.772,326.835 731.055,326.835L747.496,326.835C747.78,326.835 747.496,326.551 747.496,326.835L747.496,334.772C747.496,335.055 747.78,334.772 747.496,334.772Z" style="fill:none;fill-rule:nonzero;stroke:rgb(255,0,0);stroke-width:0.1px;"/>
            <path d="M781.512,334.772L765.071,334.772C764.787,334.772 765.071,335.055 765.071,334.772L765.071,326.835C765.071,326.551 764.787,326.835 765.071,326.835L781.512,326.835C781.795,326.835 781.512,326.551 781.512,326.835L781.512,334.772C781.512,335.055 781.795,334.772 781.512,334.772Z" style="fill:none;fill-rule:nonzero;stroke:rgb(255,0,0);stroke-width:0.1px;"/>
            <path d="M815.528,334.772L799.087,334.772C798.803,334.772 799.087,335.055 799.087,334.772L799.087,326.835C799.087,326.551 798.803,326.835 799.087,326.835L815.528,326.835C815.811,326.835 815.528,326.551 815.528,326.835L815.528,334.772C815.528,335.055 815.811,334.772 815.528,334.772Z" style="fill:none;fill-rule:nonzero;stroke:rgb(255,0,0);stroke-width:0.1px;"/>
            <path d="M849.543,334.772L833.102,334.772C832.819,334.772 833.102,335.055 833.102,334.772L833.102,326.835C833.102,326.551 832.819,326.835 833.102,326.835L849.543,326.835C849.827,326.835 849.543,326.551 849.543,326.835L849.543,334.772C849.543,335.055 849.827,334.772 849.543,334.772Z" style="fill:none;fill-rule:nonzero;stroke:rgb(255,0,0);stroke-width:0.1px;"/>
            <path d="M883.559,334.772L867.118,334.772C866.835,334.772 867.118,335.055 867.118,334.772L867.118,326.835C867.118,326.551 866.835,326.835 867.118,326.835L883.559,326.835C883.843,326.835 883.559,326.551 883.559,326.835L883.559,334.772C883.559,335.055 883.843,334.772 883.559,334.772Z" style="fill:none;fill-rule:nonzero;stroke:rgb(255,0,0);stroke-width:0.1px;"/>
            <path d="M917.575,334.772L901.134,334.772C900.85,334.772 901.134,335.055 901.134,334.772L901.134,326.835C901.134,326.551 900.85,326.835 901.134,326.835L917.575,326.835C917.858,326.835 917.575,326.551 917.575,326.835L917.575,334.772C917.575,335.055 917.858,334.772 917.575,334.772Z" style="fill:none;fill-rule:nonzero;stroke:rgb(255,0,0);stroke-width:0.1px;"/>
            <path d="M951.591,334.772L935.15,334.772C934.866,334.772 935.15,335.055 935.15,334.772L935.15,326.835C935.15,326.551 934.866,326.835 935.15,326.835L951.591,326.835C951.874,326.835 951.591,326.551 951.591,326.835L951.591,334.772C951.591,335.055 951.874,334.772 951.591,334.772Z" style="fill:none;fill-rule:nonzero;stroke:rgb(255,0,0);stroke-width:0.1px;"/>
            <path d="M985.606,334.772L969.165,334.772C968.882,334.772 969.165,335.055 969.165,334.772L969.165,326.835C969.165,326.551 968.882,326.835 969.165,326.835L985.606,326.835C985.89,326.835 985.606,326.551 985.606,326.835L985.606,334.772C985.606,335.055 985.89,334.772 985.606,334.772Z" style="fill:none;fill-rule:nonzero;stroke:rgb(255,0,0);stroke-width:0.1px;"/>
            <path d="M1019.62,334.772L1003.18,334.772C1002.9,334.772 1003.18,335.055 1003.18,334.772L1003.18,326.835C1003.18,326.551 1002.9,326.835 1003.18,326.835L1019.62,326.835C1019.91,326.835 1019.62,326.551 1019.62,326.835L1019.62,334.772C1019.62,335.055 1019.91,334.772 1019.62,334.772Z" style="fill:none;fill-rule:nonzero;stroke:rgb(255,0,0);stroke-width:0.1px;"/>
            <path d="M1053.64,334.772L1037.2,334.772C1036.91,334.772 1037.2,335.055 1037.2,334.772L1037.2,326.835C1037.2,326.551 1036.91,326.835 1037.2,326.835L1053.64,326.835C1053.92,326.835 1053.64,326.551 1053.64,326.835L1053.64,334.772C1053.64,335.055 1053.92,334.772 1053.64,334.772Z" style="fill:none;fill-rule:nonzero;stroke:rgb(255,0,0);stroke-width:0.1px;"/>
            <path d="M1087.65,334.772L1071.21,334.772C1070.93,334.772 1071.21,335.055 1071.21,334.772L1071.21,326.835C1071.21,326.551 1070.93,326.835 1071.21,326.835L1087.65,326.835C1087.94,326.835 1087.65,326.551 1087.65,326.835L1087.65,334.772C1087.65,335.055 1087.94,334.772 1087.65,334.772Z" style="fill:none;fill-rule:nonzero;stroke:rgb(255,0,0);stroke-width:0.1px;"/>
            <path d="M1121.67,334.772L1105.23,334.772C1104.94,334.772 1105.23,335.055 1105.23,334.772L1105.23,326.835C1105.23,326.551 1104.94,326.835 1105.23,326.835L1121.67,326.835C1121.95,326.835 1121.67,326.551 1121.67,326.835L1121.67,334.772C1121.67,335.055 1121.95,334.772 1121.67,334.772Z" style="fill:none;fill-rule:nonzero;stroke:rgb(255,0,0);stroke-width:0.1px;"/>
            <path d="M1155.68,334.772L1139.24,334.772C1138.96,334.772 1139.24,335.055 1139.24,334.772L1139.24,326.835C1139.24,326.551 1138.96,326.835 1139.24,326.835L1155.68,326.835C1155.97,326.835 1155.68,326.551 1155.68,326.835L1155.68,334.772C1155.68,335.055 1155.97,334.772 1155.68,334.772Z" style="fill:none;fill-rule:nonzero;stroke:rgb(255,0,0);stroke-width:0.1px;"/>
            <path d="M1189.7,334.772L1173.26,334.772C1172.98,334.772 1173.26,335.055 1173.26,334.772L1173.26,326.835C1173.26,326.551 1172.98,326.835 1173.26,326.835L1189.7,326.835C1189.98,326.835 1189.7,326.551 1189.7,326.835L1189.7,334.772C1189.7,335.055 1189.98,334.772 1189.7,334.772Z" style="fill:none;fill-rule:nonzero;stroke:rgb(255,0,0);stroke-width:0.1px;"/>
            <path d="M1218.33,278.362L1218.33,294.803C1218.33,295.087 1218.61,294.803 1218.33,294.803L1210.39,294.803C1210.11,294.803 1210.39,295.087 1210.39,294.803L1210.39,278.362C1210.39,278.079 1210.11,278.362 1210.39,278.362L1218.33,278.362C1218.61,278.362 1218.33,278.079 1218.33,278.362Z" style="fill:none;fill-rule:nonzero;stroke:rgb(255,0,0);stroke-width:0.1px;"/>
            <path d="M1218.33,244.346L1218.33,260.787C1218.33,261.071 1218.61,260.787 1218.33,260.787L1210.39,260.787C1210.11,260.787 1210.39,261.071 1210.39,260.787L1210.39,244.346C1210.39,244.063 1210.11,244.346 1210.39,244.346L1218.33,244.346C1218.61,244.346 1218.33,244.063 1218.33,244.346Z" style="fill:none;fill-rule:nonzero;stroke:rgb(255,0,0);stroke-width:0.1px;"/>
            <path d="M1218.33,210.331L1218.33,226.772C1218.33,227.055 1218.61,226.772 1218.33,226.772L1210.39,226.772C1210.11,226.772 1210.39,227.055 1210.39,226.772L1210.39,210.331C1210.39,210.047 1210.11,210.331 1210.39,210.331L1218.33,210.331C1218.61,210.331 1218.33,210.047 1218.33,210.331Z" style="fill:none;fill-rule:nonzero;stroke:rgb(255,0,0);stroke-width:0.1px;"/>
            <path d="M1218.33,176.315L1218.33,192.756C1218.33,193.039 1218.61,192.756 1218.33,192.756L1210.39,192.756C1210.11,192.756 1210.39,193.039 1210.39,192.756L1210.39,176.315C1210.39,176.031 1210.11,176.315 1210.39,176.315L1218.33,176.315C1218.61,176.315 1218.33,176.031 1218.33,176.315Z" style="fill:none;fill-rule:nonzero;stroke:rgb(255,0,0);stroke-width:0.1px;"/>
            <path d="M1218.33,142.299L1218.33,158.74C1218.33,159.024 1218.61,158.74 1218.33,158.74L1210.39,158.74C1210.11,158.74 1210.39,159.024 1210.39,158.74L1210.39,142.299C1210.39,142.016 1210.11,142.299 1210.39,142.299L1218.33,142.299C1218.61,142.299 1218.33,142.016 1218.33,142.299Z" style="fill:none;fill-rule:nonzero;stroke:rgb(255,0,0);stroke-width:0.1px;"/>
            <path d="M1218.33,108.283L1218.33,124.724C1218.33,125.008 1218.61,124.724 1218.33,124.724L1210.39,124.724C1210.11,124.724 1210.39,125.008 1210.39,124.724L1210.39,108.283C1210.39,108 1210.11,108.283 1210.39,108.283L1218.33,108.283C1218.61,108.283 1218.33,108 1218.33,108.283Z" style="fill:none;fill-rule:nonzero;stroke:rgb(255,0,0);stroke-width:0.1px;"/>
            <path d="M1218.33,74.268L1218.33,90.709C1218.33,90.992 1218.61,90.709 1218.33,90.709L1210.39,90.709C1210.11,90.709 1210.39,90.992 1210.39,90.709L1210.39,74.268C1210.39,73.984 1210.11,74.268 1210.39,74.268L1218.33,74.268C1218.61,74.268 1218.33,73.984 1218.33,74.268Z" style="fill:none;fill-rule:nonzero;stroke:rgb(255,0,0);stroke-width:0.1px;"/>
            <path d="M1173.26,34.299L1189.7,34.299C1189.98,34.299 1189.7,34.016 1189.7,34.299L1189.7,42.236C1189.7,42.52 1189.98,42.236 1189.7,42.236L1173.26,42.236C1172.98,42.236 1173.26,42.52 1173.26,42.236L1173.26,34.299C1173.26,34.016 1172.98,34.299 1173.26,34.299Z" style="fill:none;fill-rule:nonzero;stroke:rgb(255,0,0);stroke-width:0.1px;"/>
            <path d="M1139.24,34.299L1155.68,34.299C1155.97,34.299 1155.68,34.016 1155.68,34.299L1155.68,42.236C1155.68,42.52 1155.97,42.236 1155.68,42.236L1139.24,42.236C1138.96,42.236 1139.24,42.52 1139.24,42.236L1139.24,34.299C1139.24,34.016 1138.96,34.299 1139.24,34.299Z" style="fill:none;fill-rule:nonzero;stroke:rgb(255,0,0);stroke-width:0.1px;"/>
            <path d="M1105.23,34.299L1121.67,34.299C1121.95,34.299 1121.67,34.016 1121.67,34.299L1121.67,42.236C1121.67,42.52 1121.95,42.236 1121.67,42.236L1105.23,42.236C1104.94,42.236 1105.23,42.52 1105.23,42.236L1105.23,34.299C1105.23,34.016 1104.94,34.299 1105.23,34.299Z" style="fill:none;fill-rule:nonzero;stroke:rgb(255,0,0);stroke-width:0.1px;"/>
            <path d="M1071.21,34.299L1087.65,34.299C1087.94,34.299 1087.65,34.016 1087.65,34.299L1087.65,42.236C1087.65,42.52 1087.94,42.236 1087.65,42.236L1071.21,42.236C1070.93,42.236 1071.21,42.52 1071.21,42.236L1071.21,34.299C1071.21,34.016 1070.93,34.299 1071.21,34.299Z" style="fill:none;fill-rule:nonzero;stroke:rgb(255,0,0);stroke-width:0.1px;"/>
            <path d="M1037.2,34.299L1053.64,34.299C1053.92,34.299 1053.64,34.016 1053.64,34.299L1053.64,42.236C1053.64,42.52 1053.92,42.236 1053.64,42.236L1037.2,42.236C1036.91,42.236 1037.2,42.52 1037.2,42.236L1037.2,34.299C1037.2,34.016 1036.91,34.299 1037.2,34.299Z" style="fill:none;fill-rule:nonzero;stroke:rgb(255,0,0);stroke-width:0.1px;"/>
            <path d="M1003.18,34.299L1019.62,34.299C1019.91,34.299 1019.62,34.016 1019.62,34.299L1019.62,42.236C1019.62,42.52 1019.91,42.236 1019.62,42.236L1003.18,42.236C1002.9,42.236 1003.18,42.52 1003.18,42.236L1003.18,34.299C1003.18,34.016 1002.9,34.299 1003.18,34.299Z" style="fill:none;fill-rule:nonzero;stroke:rgb(255,0,0);stroke-width:0.1px;"/>
            <path d="M969.165,34.299L985.606,34.299C985.89,34.299 985.606,34.016 985.606,34.299L985.606,42.236C985.606,42.52 985.89,42.236 985.606,42.236L969.165,42.236C968.882,42.236 969.165,42.52 969.165,42.236L969.165,34.299C969.165,34.016 968.882,34.299 969.165,34.299Z" style="fill:none;fill-rule:nonzero;stroke:rgb(255,0,0);stroke-width:0.1px;"/>
            <path d="M935.15,34.299L951.591,34.299C951.874,34.299 951.591,34.016 951.591,34.299L951.591,42.236C951.591,42.52 951.874,42.236 951.591,42.236L935.15,42.236C934.866,42.236 935.15,42.52 935.15,42.236L935.15,34.299C935.15,34.016 934.866,34.299 935.15,34.299Z" style="fill:none;fill-rule:nonzero;stroke:rgb(255,0,0);stroke-width:0.1px;"/>
            <path d="M901.134,34.299L917.575,34.299C917.858,34.299 917.575,34.016 917.575,34.299L917.575,42.236C917.575,42.52 917.858,42.236 917.575,42.236L901.134,42.236C900.85,42.236 901.134,42.52 901.134,42.236L901.134,34.299C901.134,34.016 900.85,34.299 901.134,34.299Z" style="fill:none;fill-rule:nonzero;stroke:rgb(255,0,0);stroke-width:0.1px;"/>
            <path d="M867.118,34.299L883.559,34.299C883.843,34.299 883.559,34.016 883.559,34.299L883.559,42.236C883.559,42.52 883.843,42.236 883.559,42.236L867.118,42.236C866.835,42.236 867.118,42.52 867.118,42.236L867.118,34.299C867.118,34.016 866.835,34.299 867.118,34.299Z" style="fill:none;fill-rule:nonzero;stroke:rgb(255,0,0);stroke-width:0.1px;"/>
            <path d="M833.102,34.299L849.543,34.299C849.827,34.299 849.543,34.016 849.543,34.299L849.543,42.236C849.543,42.52 849.827,42.236 849.543,42.236L833.102,42.236C832.819,42.236 833.102,42.52 833.102,42.236L833.102,34.299C833.102,34.016 832.819,34.299 833.102,34.299Z" style="fill:none;fill-rule:nonzero;stroke:rgb(255,0,0);stroke-width:0.1px;"/>
            <path d="M799.087,34.299L815.528,34.299C815.811,34.299 815.528,34.016 815.528,34.299L815.528,42.236C815.528,42.52 815.811,42.236 815.528,42.236L799.087,42.236C798.803,42.236 799.087,42.52 799.087,42.236L799.087,34.299C799.087,34.016 798.803,34.299 799.087,34.299Z" style="fill:none;fill-rule:nonzero;stroke:rgb(255,0,0);stroke-width:0.1px;"/>
            <path d="M765.071,34.299L781.512,34.299C781.795,34.299 781.512,34.016 781.512,34.299L781.512,42.236C781.512,42.52 781.795,42.236 781.512,42.236L765.071,42.236C764.787,42.236 765.071,42.52 765.071,42.236L765.071,34.299C765.071,34.016 764.787,34.299 765.071,34.299Z" style="fill:none;fill-rule:nonzero;stroke:rgb(255,0,0);stroke-width:0.1px;"/>
            <path d="M731.055,34.299L747.496,34.299C747.78,34.299 747.496,34.016 747.496,34.299L747.496,42.236C747.496,42.52 747.78,42.236 747.496,42.236L731.055,42.236C730.772,42.236 731.055,42.52 731.055,42.236L731.055,34.299C731.055,34.016 730.772,34.299 731.055,34.299Z" style="fill:none;fill-rule:nonzero;stroke:rgb(255,0,0);stroke-width:0.1px;"/>
            <path d="M697.039,34.299L713.48,34.299C713.764,34.299 713.48,34.016 713.48,34.299L713.48,42.236C713.48,42.52 713.764,42.236 713.48,42.236L697.039,42.236C696.756,42.236 697.039,42.52 697.039,42.236L697.039,34.299C697.039,34.016 696.756,34.299 697.039,34.299Z" style="fill:none;fill-rule:nonzero;stroke:rgb(255,0,0);stroke-width:0.1px;"/>
            <path d="M663.024,34.299L679.465,34.299C679.748,34.299 679.465,34.016 679.465,34.299L679.465,42.236C679.465,42.52 679.748,42.236 679.465,42.236L663.024,42.236C662.74,42.236 663.024,42.52 663.024,42.236L663.024,34.299C663.024,34.016 662.74,34.299 663.024,34.299Z" style="fill:none;fill-rule:nonzero;stroke:rgb(255,0,0);stroke-width:0.1px;"/>
            <path d="M634.394,90.709L634.394,74.268C634.394,73.984 634.11,74.268 634.394,74.268L642.331,74.268C642.614,74.268 642.331,73.984 642.331,74.268L642.331,90.709C642.331,90.992 642.614,90.709 642.331,90.709L634.394,90.709C634.11,90.709 634.394,90.992 634.394,90.709Z" style="fill:none;fill-rule:nonzero;stroke:rgb(255,0,0);stroke-width:0.1px;"/>
            <path d="M634.394,124.724L634.394,108.283C634.394,108 634.11,108.283 634.394,108.283L642.331,108.283C642.614,108.283 642.331,108 642.331,108.283L642.331,124.724C642.331,125.008 642.614,124.724 642.331,124.724L634.394,124.724C634.11,124.724 634.394,125.008 634.394,124.724Z" style="fill:none;fill-rule:nonzero;stroke:rgb(255,0,0);stroke-width:0.1px;"/>
            <path d="M634.394,158.74L634.394,142.299C634.394,142.016 634.11,142.299 634.394,142.299L642.331,142.299C642.614,142.299 642.331,142.016 642.331,142.299L642.331,158.74C642.331,159.024 642.614,158.74 642.331,158.74L634.394,158.74C634.11,158.74 634.394,159.024 634.394,158.74Z" style="fill:none;fill-rule:nonzero;stroke:rgb(255,0,0);stroke-width:0.1px;"/>
            <path d="M634.394,192.756L634.394,176.315C634.394,176.031 634.11,176.315 634.394,176.315L642.331,176.315C642.614,176.315 642.331,176.031 642.331,176.315L642.331,192.756C642.331,193.039 642.614,192.756 642.331,192.756L634.394,192.756C634.11,192.756 634.394,193.039 634.394,192.756Z" style="fill:none;fill-rule:nonzero;stroke:rgb(255,0,0);stroke-width:0.1px;"/>
            <path d="M634.394,226.772L634.394,210.331C634.394,210.047 634.11,210.331 634.394,210.331L642.331,210.331C642.614,210.331 642.331,210.047 642.331,210.331L642.331,226.772C642.331,227.055 642.614,226.772 642.331,226.772L634.394,226.772C634.11,226.772 634.394,227.055 634.394,226.772Z" style="fill:none;fill-rule:nonzero;stroke:rgb(255,0,0);stroke-width:0.1px;"/>
            <path d="M634.394,260.787L634.394,244.346C634.394,244.063 634.11,244.346 634.394,244.346L642.331,244.346C642.614,244.346 642.331,244.063 642.331,244.346L642.331,260.787C642.331,261.071 642.614,260.787 642.331,260.787L634.394,260.787C634.11,260.787 634.394,261.071 634.394,260.787Z" style="fill:none;fill-rule:nonzero;stroke:rgb(255,0,0);stroke-width:0.1px;"/>
            <path d="M634.394,294.803L634.394,278.362C634.394,278.079 634.11,278.362 634.394,278.362L642.331,278.362C642.614,278.362 642.331,278.079 642.331,278.362L642.331,294.803C642.331,295.087 642.614,294.803 642.331,294.803L634.394,294.803C634.11,294.803 634.394,295.087 634.394,294.803Z" style="fill:none;fill-rule:nonzero;stroke:rgb(255,0,0);stroke-width:0.1px;"/>
        </g>
        <path d="M628.724,340.724L1224,340.724C1224.16,340.724 1224.28,340.597 1224.28,340.441L1224.28,28.63C1224.28,28.474 1224.16,28.346 1224,28.346L628.724,28.346C628.569,28.346 628.441,28.474 628.441,28.63L628.441,340.441C628.441,340.597 628.569,340.724 628.724,340.724" style="fill:none;fill-rule:nonzero;stroke:rgb(255,0,0);stroke-width:0.1px;"/>
    </g>
</svg>
